<?xml version="1.0" encoding="utf-8"?>
<!-- Generator: Adobe Illustrator 21.0.2, SVG Export Plug-In . SVG Version: 6.00 Build 0)  -->
<svg version="1.1" id="Layer_1" xmlns="http://www.w3.org/2000/svg" xmlns:xlink="http://www.w3.org/1999/xlink" x="0px" y="0px"
	 viewBox="0 0 17.5 26.8" enable-background="new 0 0 17.5 26.8" xml:space="preserve">
<path fill="#FFFFFF" d="M9.6,0H7.6C3.3,0,0,3.5,0,7.9v11c0,4.4,3.3,7.9,7.6,7.9h2.1c4.3,0,7.9-3.5,7.9-7.9v-11C17.5,3.5,14,0,9.6,0
	L9.6,0z M8.7,4.1h0.2c0.2,0,0.5,0.2,0.5,0.5v3.2c0,0.2-0.2,0.5-0.5,0.5H8.7C8.4,8.2,8.2,8,8.2,7.8V4.6C8.2,4.3,8.4,4.1,8.7,4.1
	L8.7,4.1z M16.5,18.9c0,3.8-3.1,6.9-6.9,6.9H7.6c-3.7,0-6.6-3-6.6-6.9v-11C1,4,3.9,1,7.6,1h0.7v2.1c-0.6,0.2-1,0.8-1,1.4v3.2
	c0,0.7,0.4,1.2,1,1.4v2.7c0,0.3,0.2,0.5,0.5,0.5c0.3,0,0.5-0.2,0.5-0.5V9.2c0.6-0.2,1.1-0.8,1.1-1.4V4.6c0-0.7-0.4-1.2-1.1-1.4V1
	h0.4c3.8,0,6.9,3.1,6.9,6.9V18.9z M16.5,18.9"/>
</svg>
