<svg xmlns="http://www.w3.org/2000/svg">
    <symbol id="triangle" viewBox="0 0 22.3 24.7">
        <path d="M4,0.5C1.8-0.7,0,0.3,0,2.9v19c0,2.6,1.8,3.6,4,2.3l16.6-9.5c2.2-1.3,2.2-3.4,0-4.6L4,0.5z M4,0.5" />
    </symbol>

    <symbol id="play-btn" viewBox="0 0 24 24">
        <path d="M16,11.5l-5-3.6c-0.2-0.1-0.4-0.2-0.6-0.1C10.2,8,10,8.2,10,8.4v7.3c0,0.2,0.1,0.4,0.3,0.5c0.1,0,0.2,0.1,0.3,0.1
            c0.1,0,0.2,0,0.4-0.1l5-3.6c0.2-0.1,0.3-0.3,0.3-0.5C16.2,11.8,16.1,11.7,16,11.5L16,11.5z M16,11.5" />
        <path d="M12,0C5.4,0,0,5.4,0,12c0,6.6,5.4,12,12,12c6.6,0,12-5.4,12-12C24,5.4,18.7,0,12,0L12,0z M12,22C6.5,22,2,17.6,2,12
            C2,6.5,6.5,2,12,2c5.5,0,10,4.5,10,10C22,17.6,17.6,22,12,22L12,22z M12,22" />
    </symbol>

    <symbol id="arrow" viewBox="0 0 33.7 7.7">
        <polygon points="30.4,0 29.7,0.7 32,3.3 0,3.3 0,4.3 32,4.3 29.7,7 30.4,7.7 33.7,3.8 " />
    </symbol>

    <symbol id="share" viewBox="0 0 19.2 20.8">
        <path d="M15.2,12.8c-1.4,0-2.7,0.7-3.4,1.8l-4.3-2.4
                C7.8,11.7,8,11.1,8,10.4C8,10,7.9,9.6,7.8,9.3l4.5-2.5C13,7.5,14,8,15.2,8c2.2,0,4-1.8,4-4s-1.8-4-4-4c-2.2,0-4,1.8-4,4
                c0,0.4,0.1,0.8,0.2,1.1L6.9,7.7C6.2,6.9,5.2,6.4,4,6.4c-2.2,0-4,1.8-4,4c0,2.2,1.8,4,4,4c0.9,0,1.7-0.3,2.4-0.8l0,0l4.8,2.8
                c0,0.1,0,0.3,0,0.4c0,2.2,1.8,4,4,4c2.2,0,4-1.8,4-4C19.2,14.6,17.4,12.8,15.2,12.8L15.2,12.8z M15.2,1.6c1.3,0,2.4,1.1,2.4,2.4
                c0,1.3-1.1,2.4-2.4,2.4c-1.3,0-2.4-1.1-2.4-2.4C12.8,2.7,13.9,1.6,15.2,1.6L15.2,1.6z M4,12.8c-1.3,0-2.4-1.1-2.4-2.4
                C1.6,9.1,2.7,8,4,8c1.3,0,2.4,1.1,2.4,2.4C6.4,11.7,5.3,12.8,4,12.8L4,12.8z M15.2,19.2c-1.3,0-2.4-1.1-2.4-2.4
                c0-1.3,1.1-2.4,2.4-2.4c1.3,0,2.4,1.1,2.4,2.4C17.6,18.1,16.5,19.2,15.2,19.2L15.2,19.2z M15.2,19.2" />
    </symbol>

    <symbol id="fb" viewBox="0 0 37.1 79.5">
        <path id="XMLID_19_" d="M24.5,23.8v-6.4c0-3.1,2.1-3.8,3.5-3.8c1.5,0,8.9,0,8.9,0V0.1L24.6,0
				C11,0,7.9,10.2,7.9,16.7v7.2H0v15.9h7.9c0,18,0,39.7,0,39.7h15.9c0,0,0-21.9,0-39.7h11.8l1.5-15.9H24.5z" />
    </symbol>

    <symbol id="linked-in" viewBox="0 0 66.7 66.6">
        <g>
            <rect y="22.2" width="15.5" height="44.4" />
            <path d="M7.8,0C2.9,0-0.9,4.5,0.2,9.5c0.6,2.9,3,5.3,6,5.9c5,1,9.4-2.8,9.4-7.6C15.5,3.5,12.1,0,7.8,0z" />
            <path d="M66.6,35.8c-1-8.4-5.2-13.6-16.5-13.6c-8,0-11.2,1.3-13.1,4.8l0,0v-4.8H24.4v44.4h12.9V43.3
                            c0-5.8,1.1-10.2,8.3-10.2c7.1,0,7.6,5.4,7.6,10.6v22.9h13.3C66.6,66.6,66.8,37.8,66.6,35.8z" />
        </g>
    </symbol>

    <symbol id="pinterest" viewBox="0 0 63.6 79.4">
        <path d="M33.7,0C21,0,8.3,5.7,2.6,17.6c-2.9,6.2-3.5,13.6-0.9,20c1.1,2.7,2.8,5.2,5.3,6.9
                c1,0.7,2.7,1.9,4,1.6c1.3-0.3,1.4-2.2,1.7-3.2c0.3-1.1,0.9-2.4,0.3-3.5c-0.8-1.4-2.1-2.5-2.6-4.1c-0.8-2.1-1.1-4.7-1-6.9
                c0.4-7.1,4.3-13.6,10.4-17.2c9.4-5.6,25.4-4.7,30.7,6.2c2.7,5.5,2,12.2,0.5,17.9c-1.4,5.3-4.2,11.1-9.5,13.4
                c-4.8,2.1-11.7,0.1-11.9-5.9c-0.1-1.7,0.6-3.5,1.1-5.1c0.6-1.9,1.2-3.8,1.8-5.7c0.9-3,2.1-6.5,1.2-9.7c-1.5-5.7-8.6-5.6-12-1.8
                c-1.9,2.1-2.9,5-3.1,7.9c-0.1,2.1,0.5,4.2,0.9,6.3c0.2,0.8,0.6,1.7,0.4,2.5c-0.2,1.2-0.6,2.4-0.9,3.6c-1,4.2-2,8.4-3.1,12.6
                c-0.9,3.6-2,7.3-2.5,11c-0.5,3.3-0.5,6.6-0.2,9.8c0.1,1.1,0.2,2.3,0.3,3.4c0.1,0.4,0,1.5,0.4,1.8c0.9,0.9,2.9-2.5,3.3-3.1
                c1.8-2.5,3.5-5.2,4.7-8c1.9-4.1,2.7-8.7,3.9-13c0.3-1.2,0.6-2.3,0.9-3.5c1.9,3.5,6.5,5.3,10.3,5.6c3.5,0.3,7.3-0.4,10.5-1.8
                C54,52.8,58.6,47,61.1,40.4c2.7-7.1,3.6-15.7,0.8-22.9c-2.5-6.4-7.6-11.4-13.7-14.4C42.7,0.5,36.8,0,30.7,0c3,0,5.9,0,8.9,0
                C37.7,0,35.7,0,33.7,0C21.6,0,51.7,0,33.7,0z" />
    </symbol>
</svg>
